<?xml version="1.0" standalone="no"?>
<!DOCTYPE svg PUBLIC "-//W3C//DTD SVG 1.1//EN" "http://www.w3.org/Graphics/SVG/1.1/DTD/svg11.dtd" >
<svg xmlns="http://www.w3.org/2000/svg">
<metadata>
Created by FontPrep 20130207 at Thu May 22 15:32:34 2014
 By Niek Weevers
Copyright (c) 1991, 2002 Adobe Systems Incorporated.  All Rights Reserved. (c) 1981, 2002 Heidelberger Druckmaschinen AG. All rights reserved.
</metadata>
<defs>
<font id="5c0ac86aedf61bbea1c349a7a9c3a0b0" horiz-adv-x='1024' >
  <font-face 
    font-family="FrutigerLTStd-Cn"
    font-weight="400"
    font-stretch="condensed"
    units-per-em="2048"
    panose-1="2 11 6 6 2 2 4 2 2 4"
    ascent="1536"
    descent="-512"
    x-height="1044"
    cap-height="1430"
    bbox="-215 -512 2048 1902"
    underline-thickness="102"
    underline-position="-102"
    unicode-range="U+0020-FB02"
  />
<missing-glyph horiz-adv-x="1024" 
d="M102 1239v-1044l349 522zM164 102h696l-348 523zM573 717l349 -522v1044zM512 809l348 522h-696zM0 0v1434h1024v-1434h-1024z" />
    <glyph glyph-name="fi" unicode="fi" horiz-adv-x="1024" 
d="M199 0v905h-166v139h166v234q0 133 64 208q65 75 196 75q74 0 135 -17v-147q-32 25 -100 25t-96 -39q-28 -38 -27 -119v-220h188v-139h-188v-905h-172zM702 1475h189v-205h-189v205zM711 0v1044h172v-1044h-172z" />
    <glyph glyph-name="fl" unicode="fl" horiz-adv-x="1024" 
d="M199 0v905h-166v139h166v234q0 133 64 208q65 75 196 75q74 0 135 -17v-147q-32 25 -100 25t-96 -39q-28 -38 -27 -119v-220h188v-139h-188v-905h-172zM711 0v1536h172v-1536h-172z" />
    <glyph glyph-name=".notdef" horiz-adv-x="1024" 
d="M102 1239v-1044l349 522zM164 102h696l-348 523zM573 717l349 -522v1044zM512 809l348 522h-696zM0 0v1434h1024v-1434h-1024z" />
    <glyph glyph-name=".null" horiz-adv-x="0" 
 />
    <glyph glyph-name="nonmarkingreturn" horiz-adv-x="681" 
 />
    <glyph glyph-name="space" unicode=" " horiz-adv-x="491" 
 />
    <glyph glyph-name="exclam" unicode="!" horiz-adv-x="720" 
d="M262 0v229h197v-229h-197zM434 381h-147l-29 1049h205z" />
    <glyph glyph-name="quotedbl" unicode="&#x22;" horiz-adv-x="1024" 
d="M285 1061v475h147v-475h-147zM592 1061v475h147v-475h-147z" />
    <glyph glyph-name="numbersign" unicode="#" 
d="M8 446v111h217l43 315h-202v111h217l61 447h123l-61 -447h243l62 447h123l-62 -447h203v-111h-217l-43 -315h203v-111h-218l-63 -446h-123l64 446h-244l-64 -446h-123l64 446h-203zM391 872l-43 -315h244l43 315h-244z" />
    <glyph glyph-name="dollar" unicode="$" 
d="M453 -193v181q-6 -2 -25 -2q-162 0 -289 61v186q154 -92 273 -92q27 0 41 2v510l-60 37q-154 94 -209 178t-55 226t89 233q89 92 235 113v168h82v-164q150 -4 249 -47v-174q-109 66 -239 65h-10v-465q25 -18 53 -35q142 -84 204 -178t62 -234t-83 -248t-236 -132v-189
h-82zM453 877v395q-135 -49 -136 -197q0 -57 28 -100t108 -98zM666 371q0 68 -26 118t-105 107v-428q61 27 96 81t35 122z" />
    <glyph glyph-name="percent" unicode="%" horiz-adv-x="1667" 
d="M449 -68l641 1565h131l-641 -1565h-131zM1126 381q0 -141 33 -207t105 -66t104 66t33 207q0 141 -33 207q-32 66 -104 66t-105 -66t-33 -207zM979 381q0 197 76 296t209 99t209 -99q75 -99 75 -296t-76 -296t-208 -99q-133 0 -209 99t-76 296zM266 1049q0 -141 33 -207
t105 -66t104 66q33 66 33 207t-33 207t-105 65q-73 1 -105 -65t-32 -207zM119 1049q0 197 76 296q77 99 209 99t208 -99t76 -296t-76 -296t-209 -99t-209 98q-76 100 -75 297z" />
    <glyph glyph-name="ampersand" unicode="&#x26;" horiz-adv-x="1251" 
d="M739 1145q0 70 -41 115q-40 45 -114 45t-121 -43t-47 -111q0 -100 131 -260q104 66 148 125t44 129zM535 -14q-199 0 -310 112t-111 272q0 158 70 263q70 104 213 182q-145 207 -145 335t92 211t236 83t234 -84q89 -84 89 -213q0 -213 -272 -369l264 -366q74 160 86 391
h172q-20 -303 -160 -520l221 -283h-213l-112 158q-51 -84 -147 -128t-207 -44zM295 395q0 -113 72 -187t190 -75q69 0 139 41t105 96l-316 426q-190 -125 -190 -301z" />
    <glyph glyph-name="quotesingle" unicode="'" horiz-adv-x="491" 
d="M172 1061v475h147v-475h-147z" />
    <glyph glyph-name="parenleft" unicode="(" horiz-adv-x="569" 
d="M121 631q0 207 77 451t208 466l137 -12q-143 -280 -197 -478t-53 -427q-1 -229 53 -427t197 -478l-137 -13q-131 223 -208 467t-77 451z" />
    <glyph glyph-name="parenright" unicode=")" horiz-adv-x="569" 
d="M276 631q0 229 -53 428t-196 477l137 12q131 -223 208 -467q77 -245 77 -451t-77 -450t-208 -467l-137 13q143 280 196 478t53 427z" />
    <glyph glyph-name="asterisk" unicode="*" horiz-adv-x="1024" 
d="M563 1270l248 104l49 -147l-262 -60l176 -202l-127 -91l-135 230l-139 -230l-125 91l178 202l-262 60l47 147l246 -106l-23 268h156z" />
    <glyph glyph-name="plus" unicode="+" horiz-adv-x="1228" 
d="M96 449v139h449v448h139v-448h449v-139h-449v-449h-139v449h-449z" />
    <glyph glyph-name="comma" unicode="," horiz-adv-x="491" 
d="M53 -246l103 475h188l-135 -475h-156z" />
    <glyph glyph-name="hyphen" unicode="-" horiz-adv-x="606" 
d="M82 502v147h442v-147h-442z" />
    <glyph glyph-name="period" unicode="." horiz-adv-x="491" 
d="M147 0v229h197v-229h-197z" />
    <glyph glyph-name="slash" unicode="/" horiz-adv-x="530" 
d="M0 -14l379 1458h151l-378 -1458h-152z" />
    <glyph glyph-name="zero" unicode="0" 
d="M76 715q0 356 106 542q106 187 310 187t309 -186q106 -186 106 -543t-106 -543t-309 -186t-310 186q-106 187 -106 543zM256 715q0 -301 56 -441t180 -141q124 0 179 140q56 139 56 441t-56 442t-179 140q-124 0 -180 -140t-56 -441z" />
    <glyph glyph-name="one" unicode="1" 
d="M414 0v1223l-183 -205l-94 133l293 279h164v-1430h-180z" />
    <glyph glyph-name="two" unicode="2" 
d="M76 0v158q543 623 542 891q0 102 -55 171t-155 68q-62 0 -138 -31t-137 -79l-22 180q177 86 337 86t260 -104t99 -273q1 -168 -147 -421t-386 -490h553v-156h-751z" />
    <glyph glyph-name="three" unicode="3" 
d="M365 133q121 0 207 80t85 199q-1 120 -75 186t-203 66h-133v147h73q162 0 248 69t86 178t-70 174q-71 64 -192 64t-254 -79l-16 167q127 60 308 60t293 -91t112 -247t-72 -242t-193 -110v-4q129 -16 203 -114t74 -239q0 -178 -121 -295t-344 -116q-170 0 -305 53l16 176
q152 -82 273 -82z" />
    <glyph glyph-name="four" unicode="4" 
d="M608 471v778h-4l-405 -778h409zM608 0v324h-561v172l514 934h219v-959h156v-147h-156v-324h-172z" />
    <glyph glyph-name="five" unicode="5" 
d="M388 133q128 0 209 91q81 90 81 234t-79 222t-224 78q-84 0 -236 -47v719h658v-148h-486v-399q72 23 162 22q168 1 281 -111q112 -112 112 -327t-118 -348t-342 -133q-150 0 -281 57l8 166q127 -76 255 -76z" />
    <glyph glyph-name="six" unicode="6" 
d="M616 1296q-174 0 -271 -154t-97 -413h4q37 84 112 130t171 46q172 0 272 -133t100 -313q-1 -227 -115 -350t-296 -123q-420 0 -420 671q0 786 530 787q132 0 238 -41l-8 -168q-100 61 -220 61zM727 445q0 125 -59 219t-167 94q-107 0 -167 -94t-60 -219q0 -126 60 -219
t166 -93q108 0 168 93q59 93 59 219z" />
    <glyph glyph-name="seven" unicode="7" 
d="M115 1274v156h753v-170l-442 -1260h-199l469 1274h-581z" />
    <glyph glyph-name="eight" unicode="8" 
d="M76 377q0 258 268 364q-123 59 -181 155t-59 200q0 141 104 244q104 104 284 104q178 0 282 -104t105 -244q-1 -102 -59 -198t-179 -157q266 -109 266 -364q-1 -170 -113 -281q-112 -110 -302 -110t-304 110q-112 111 -112 281zM256 384q0 -98 68 -174t173 -77
q105 0 168 71q62 71 62 175t-57 172t-191 129q-129 -70 -176 -134t-47 -162zM285 1083q0 -174 223 -272q190 135 190 285q0 80 -59 140t-147 60t-148 -61q-59 -62 -59 -152z" />
    <glyph glyph-name="nine" unicode="9" 
d="M735 700h-4q-37 -84 -111 -130t-171 -46q-172 0 -273 133q-100 133 -100 314q0 227 114 350q115 123 297 123q420 0 420 -672q0 -786 -530 -786q-132 0 -238 41l8 168q100 -61 220 -62q174 0 271 155t97 412zM482 1296q-108 0 -166 -93q-60 -93 -60 -219t59 -219t167 -93
t167 93t59 219t-58 219q-60 93 -168 93z" />
    <glyph glyph-name="colon" unicode=":" horiz-adv-x="491" 
d="M147 0v229h197v-229h-197zM147 815v229h197v-229h-197z" />
    <glyph glyph-name="semicolon" unicode=";" horiz-adv-x="491" 
d="M147 815v229h197v-229h-197zM53 -246l103 475h188l-135 -475h-156z" />
    <glyph glyph-name="less" unicode="&#x3c;" horiz-adv-x="1228" 
d="M96 453v131l1037 467v-131l-881 -402l881 -401v-131z" />
    <glyph glyph-name="equal" unicode="=" horiz-adv-x="1228" 
d="M96 242v139h1037v-139h-1037zM96 655v140h1037v-140h-1037z" />
    <glyph glyph-name="greater" unicode="&#x3e;" horiz-adv-x="1228" 
d="M96 -14v131l881 401l-881 402v131l1037 -467v-131z" />
    <glyph glyph-name="question" unicode="?" horiz-adv-x="909" 
d="M324 0v229h196v-229h-196zM786 1099q0 -161 -104 -319l-119 -174q-41 -55 -52 -97t-11 -138h-156q0 143 24 214t104 171t107 164t27 151q0 88 -61 153t-155 65t-234 -70l-9 167q129 58 284 58t255 -92t100 -253z" />
    <glyph glyph-name="at" unicode="@" horiz-adv-x="1638" 
d="M1409 834q0 219 -151 349t-413 130q-263 0 -439 -169t-176 -427t168 -429q169 -171 421 -171q365 0 543 215h127q-96 -164 -272 -255t-398 -91q-303 0 -516 213t-213 517t220 516t554 212q287 0 486 -178t198 -432q0 -123 -47 -231q-83 -191 -269 -284q-79 -39 -145 -38
q-135 0 -161 122h-4q-115 -123 -267 -122q-123 0 -191 89t-67 214q0 209 134 378t337 168q72 0 131 -40t93 -115l41 123h131l-174 -551q-52 -142 24 -144q115 0 205 129t90 302zM553 596q0 -88 41 -140t104 -53q138 1 236 143t98 281q0 84 -44 132t-116 49q-109 0 -214 -122
t-105 -290z" />
    <glyph glyph-name="A" unicode="A" horiz-adv-x="1175" 
d="M360 528h449l-219 713h-4zM496 1430h196l467 -1430h-188l-115 373h-545l-114 -373h-181z" />
    <glyph glyph-name="B" unicode="B" horiz-adv-x="1062" 
d="M338 664v-517h154q136 0 206 73q70 72 70 186t-66 186t-190 72h-174zM338 1282v-471h106q293 0 293 246q0 100 -64 163q-65 62 -198 62h-137zM158 0v1430h362q199 0 298 -98t100 -265q0 -117 -64 -202t-172 -115v-5q118 -16 192 -111t74 -251q0 -155 -114 -269t-332 -114
h-344z" />
    <glyph glyph-name="C" unicode="C" horiz-adv-x="1099" 
d="M720 -14q-142 0 -270 59q-126 59 -201 161q-151 206 -151 525q0 317 175 515t458 198q168 0 270 -51v-176q-113 72 -268 71q-186 0 -316 -142t-130 -410q-1 -268 115 -431q116 -164 343 -164q139 0 256 68v-180q-139 -43 -281 -43z" />
    <glyph glyph-name="D" unicode="D" horiz-adv-x="1175" 
d="M317 1274v-1118h109q233 0 356 152t123 412q0 552 -479 554h-109zM1094 768q0 -768 -734 -768h-223v1430h312q236 0 380 -103q113 -78 189 -223t76 -336z" />
    <glyph glyph-name="E" unicode="E" horiz-adv-x="948" 
d="M158 0v1430h665v-156h-485v-455h463v-155h-463v-508h512v-156h-692z" />
    <glyph glyph-name="F" unicode="F" horiz-adv-x="872" 
d="M158 0v1430h639v-156h-459v-455h436v-155h-436v-664h-180z" />
    <glyph glyph-name="G" unicode="G" horiz-adv-x="1253" 
d="M1096 786v-727q-378 -139 -645 -14q-231 107 -315 393q-38 129 -38 279q0 331 175 529t458 198q203 0 336 -64v-180q-172 88 -346 88t-304 -142t-130 -410q-1 -268 115 -431q116 -164 343 -164q104 0 179 39v451h-240v155h412z" />
    <glyph glyph-name="H" unicode="H" horiz-adv-x="1175" 
d="M158 0v1430h180v-611h500v611h180v-1430h-180v664h-500v-664h-180z" />
    <glyph glyph-name="I" unicode="I" horiz-adv-x="495" 
d="M158 0v1430h180v-1430h-180z" />
    <glyph glyph-name="J" unicode="J" horiz-adv-x="645" 
d="M147 158q180 0 181 227v1045h180v-1055q0 -177 -78 -283t-233 -106q-39 0 -150 14v178q76 -20 100 -20z" />
    <glyph glyph-name="K" unicode="K" horiz-adv-x="1062" 
d="M137 0v1430h180v-621h5l473 621h215l-537 -676l582 -754h-234l-499 692h-5v-692h-180z" />
    <glyph glyph-name="L" unicode="L" horiz-adv-x="833" 
d="M158 0v1430h180v-1274h469v-156h-649z" />
    <glyph glyph-name="M" unicode="M" horiz-adv-x="1593" 
d="M158 0v1430h278l359 -1137h4l366 1137h271v-1430h-172v1233h-4l-406 -1233h-131l-389 1233h-4v-1233h-172z" />
    <glyph glyph-name="N" unicode="N" horiz-adv-x="1253" 
d="M158 0v1430h223l539 -1180h4v1180h172v-1430h-224l-538 1171h-4v-1171h-172z" />
    <glyph glyph-name="O" unicode="O" horiz-adv-x="1253" 
d="M618 133q156 0 252 143t96 465t-139 471q-78 84 -192 84q-156 0 -252 -144t-96 -464q0 -321 139 -471q78 -84 192 -84zM626 -14q-248 0 -388 192t-140 540t140 536q140 190 389 190q248 0 388 -193t140 -540t-140 -536q-141 -189 -389 -189z" />
    <glyph glyph-name="P" unicode="P" horiz-adv-x="985" 
d="M338 1282v-537h98q299 0 299 263q0 274 -295 274h-102zM158 0v1430h344q194 0 308 -110t114 -308t-119 -306t-346 -108h-121v-598h-180z" />
    <glyph glyph-name="Q" unicode="Q" horiz-adv-x="1253" 
d="M618 133q156 0 252 143t96 465t-139 471q-78 84 -192 84q-156 0 -252 -144t-96 -464q0 -321 139 -471q78 -84 192 -84zM1155 729q0 -543 -303 -692l274 -303h-221l-215 260q-31 -6 -35 -6l-37 -2q-240 0 -380 192t-140 540q0 347 140 536q140 190 389 190q248 0 388 -193
t140 -522z" />
    <glyph glyph-name="R" unicode="R" horiz-adv-x="1062" 
d="M338 1282v-487h139q135 -1 201 73t66 185t-70 170t-193 59h-143zM158 0v1430h366q197 0 302 -100t106 -271q0 -125 -68 -218t-215 -124v-4q63 -12 99 -44t57 -96l201 -573h-195l-164 483q-31 92 -80 128t-147 36h-82v-647h-180z" />
    <glyph glyph-name="S" unicode="S" horiz-adv-x="909" 
d="M281 1086q0 -82 47 -138q48 -55 202 -144q154 -90 221 -188t66 -225q-1 -178 -109 -292q-108 -113 -294 -113t-312 61v186q154 -92 272 -92t186 67t69 157q0 90 -42 149q-41 58 -205 158t-227 186t-63 242t114 250t272 94t270 -47v-174q-108 65 -226 65t-180 -60
t-61 -142z" />
    <glyph glyph-name="T" unicode="T" horiz-adv-x="909" 
d="M365 0v1274h-328v156h835v-156h-327v-1274h-180z" />
    <glyph glyph-name="U" unicode="U" horiz-adv-x="1212" 
d="M1055 1430v-904q1 -203 -53 -310q-115 -230 -396 -230q-282 0 -395 230q-53 108 -53 310v904h180v-930q0 -170 71 -268t197 -99q126 0 198 98q71 98 70 269v930h181z" />
    <glyph glyph-name="V" unicode="V" horiz-adv-x="1099" 
d="M453 0l-435 1430h197l332 -1166h4l350 1166h180l-448 -1430h-180z" />
    <glyph glyph-name="W" unicode="W" horiz-adv-x="1630" 
d="M330 0l-312 1430h189l233 -1160h4l256 1160h230l256 -1160h4l250 1160h172l-312 -1430h-213l-270 1225h-4l-270 -1225h-213z" />
    <glyph glyph-name="X" unicode="X" horiz-adv-x="1099" 
d="M12 0l434 756l-383 674h213l299 -527l287 527h199l-399 -676l425 -754h-213l-335 596l-322 -596h-205z" />
    <glyph glyph-name="Y" unicode="Y" horiz-adv-x="1060" 
d="M440 0v600l-428 830h205l315 -633l318 633h199l-428 -830v-600h-181z" />
    <glyph glyph-name="Z" unicode="Z" horiz-adv-x="948" 
d="M70 0v170l581 1104h-563v156h778v-156l-600 -1118h613v-156h-809z" />
    <glyph glyph-name="bracketleft" unicode="[" horiz-adv-x="569" 
d="M184 -287v1835h312v-123h-164v-1589h164v-123h-312z" />
    <glyph glyph-name="backslash" unicode="\" horiz-adv-x="530" 
d="M379 -14l-379 1458h152l378 -1458h-151z" />
    <glyph glyph-name="bracketright" unicode="]" horiz-adv-x="569" 
d="M74 -287v123h164v1589h-164v123h311v-1835h-311z" />
    <glyph glyph-name="asciicircum" unicode="^" horiz-adv-x="1228" 
d="M96 543l453 887h131l453 -887h-148l-371 747l-370 -747h-148z" />
    <glyph glyph-name="underscore" unicode="_" horiz-adv-x="1024" 
d="M0 -256v102h1024v-102h-1024z" />
    <glyph glyph-name="grave" unicode="`" horiz-adv-x="417" 
d="M180 1188l-209 297h203l137 -297h-131z" />
    <glyph glyph-name="a" unicode="a" horiz-adv-x="948" 
d="M246 304q0 -188 188 -187q98 1 164 77q68 76 68 187v131q-31 4 -121 4q-145 0 -222 -60t-77 -152zM470 1059q171 0 265 -94t94 -260v-545q0 -86 9 -160h-156l-10 141h-4q-92 -156 -293 -155q-135 0 -218 78t-83 231q0 154 117 249q118 95 374 95h101v47q0 114 -44 174
t-169 60q-171 0 -269 -109l-18 162q133 86 304 86z" />
    <glyph glyph-name="b" unicode="b" horiz-adv-x="985" 
d="M109 1536h172v-635h4q98 158 265 158t264 -137q97 -138 97 -400t-97 -399t-271 -137t-267 168h-4l-6 -154h-166l9 193v1343zM281 522q0 -397 229 -397t229 397t-229 398q-229 -1 -229 -398z" />
    <glyph glyph-name="c" unicode="c" horiz-adv-x="796" 
d="M530 911q-122 0 -199 -98q-77 -99 -77 -289t77 -290t193 -101q116 0 224 55l8 -157q-102 -45 -219 -45q-225 0 -344 147t-119 390t125 389t342 147q121 0 207 -41l-9 -156q-87 49 -209 49z" />
    <glyph glyph-name="d" unicode="d" horiz-adv-x="985" 
d="M442 -14q-174 0 -271 137t-97 399t97 400t264 137q167 0 265 -158h5v635h172v-1343l8 -193h-166l-6 154h-4q-93 -168 -267 -168zM705 522q0 397 -230 398q-229 0 -229 -398t230 -397q230 0 229 397z" />
    <glyph glyph-name="e" unicode="e" horiz-adv-x="909" 
d="M672 602q0 326 -205 326q-91 0 -151 -78t-62 -248h418zM844 471h-590q0 -354 285 -354q121 0 239 86l8 -156q-129 -61 -292 -61q-203 0 -312 143t-108 393q0 250 105 393t289 143t280 -130q96 -131 96 -365v-92z" />
    <glyph glyph-name="f" unicode="f" horiz-adv-x="569" 
d="M199 0v905h-166v139h166v234q0 133 64 208q65 75 196 75q74 0 135 -17v-147q-32 25 -100 25t-96 -39q-28 -38 -27 -119v-220h188v-139h-188v-905h-172z" />
    <glyph glyph-name="g" unicode="g" horiz-adv-x="985" 
d="M877 -45q0 -203 -129 -306q-128 -103 -298 -103t-325 63l8 174q135 -90 287 -90q293 0 293 305v164h-4q-101 -176 -271 -176t-267 137t-97 400t100 399t279 137q77 0 145 -45t111 -121h4l6 151h166l-8 -190v-899zM246 522q0 -397 229 -397t230 397q0 397 -230 398
q-229 -1 -229 -398z" />
    <glyph glyph-name="h" unicode="h" horiz-adv-x="987" 
d="M125 0v1536h172v-635h4q35 70 102 114q68 44 154 44q141 0 223 -84t82 -250v-725h-172v674q0 238 -172 237q-104 0 -163 -71q-58 -72 -58 -211v-629h-172z" />
    <glyph glyph-name="i" unicode="i" horiz-adv-x="454" 
d="M133 1475h189v-205h-189v205zM141 0v1044h172v-1044h-172z" />
    <glyph glyph-name="j" unicode="j" horiz-adv-x="454" 
d="M133 1475h189v-205h-189v205zM67 -307q37 0 56 28q18 29 18 109v1214h172v-1237q0 -139 -52 -200t-187 -62q-56 1 -99 19v139q55 -10 92 -10z" />
    <glyph glyph-name="k" unicode="k" horiz-adv-x="909" 
d="M297 526v-526h-172v1536h172v-911l358 419h201l-410 -466l447 -578h-213l-379 526h-4z" />
    <glyph glyph-name="l" unicode="l" horiz-adv-x="454" 
d="M141 0v1536h172v-1536h-172z" />
    <glyph glyph-name="m" unicode="m" horiz-adv-x="1478" 
d="M544 1059q171 0 253 -164q88 164 254 164q141 0 222 -84t81 -250v-725h-172v717q0 195 -160 194q-197 0 -197 -266v-645h-172v717q0 195 -159 194q-197 0 -197 -266v-645h-172v819l-8 225h166l6 -155h4q80 170 251 170z" />
    <glyph glyph-name="n" unicode="n" horiz-adv-x="987" 
d="M557 1059q141 0 223 -84t82 -250v-725h-172v674q0 238 -172 237q-104 0 -163 -71q-58 -72 -58 -211v-629h-172v819l-8 225h166l6 -155h4q80 170 264 170z" />
    <glyph glyph-name="o" unicode="o" horiz-adv-x="987" 
d="M74 522q0 250 108 393q109 143 312 143q204 0 312 -142q108 -144 108 -394t-110 -393q-108 -143 -310 -143t-312 143q-108 143 -108 393zM254 522q0 -397 240 -397t239 397q0 397 -239 398q-240 -1 -240 -398z" />
    <glyph glyph-name="p" unicode="p" horiz-adv-x="985" 
d="M542 1059q174 0 272 -137q97 -138 97 -400t-97 -399t-264 -137t-265 157h-4v-585h-172v1294l-9 192h166l6 -153h4q92 168 266 168zM281 522q0 -397 229 -397t229 397t-229 398q-229 -1 -229 -398z" />
    <glyph glyph-name="q" unicode="q" horiz-adv-x="985" 
d="M877 -442h-172v585h-5q-98 -157 -265 -157t-264 137t-97 399t97 400t271 137q174 0 267 -168h4l6 153h166l-8 -192v-1294zM705 522q0 397 -230 398q-229 0 -229 -398t230 -397q230 0 229 397z" />
    <glyph glyph-name="r" unicode="r" horiz-adv-x="606" 
d="M590 1059v-170q-31 6 -66 6q-102 0 -164 -88t-63 -254v-553h-172v819l-8 225h166l6 -163h4q41 94 110 136q70 42 187 42z" />
    <glyph glyph-name="s" unicode="s" horiz-adv-x="757" 
d="M314 125q106 0 158 42t52 105q0 104 -133 164l-115 51q-112 51 -158 111t-46 174q0 115 93 201t231 86t233 -37l-8 -148q-99 46 -193 46t-139 -40t-45 -102t43 -102q43 -41 133 -76l61 -25q207 -84 207 -266q0 -145 -83 -234t-249 -89t-286 61l10 156q128 -78 234 -78z
" />
    <glyph glyph-name="t" unicode="t" horiz-adv-x="606" 
d="M199 233v672h-166v139h166v213l172 52v-265h215v-139h-215v-616q1 -88 25 -126t76 -38t114 27v-140q-76 -27 -146 -26q-123 0 -182 57t-59 190z" />
    <glyph glyph-name="u" unicode="u" horiz-adv-x="987" 
d="M430 -14q-141 0 -223 84t-82 249v725h172v-673q0 -238 172 -238q104 0 163 72q58 72 58 211v628h172v-819l8 -225h-165l-7 156h-4q-80 -170 -264 -170z" />
    <glyph glyph-name="v" unicode="v" horiz-adv-x="872" 
d="M336 0l-318 1044h189l229 -872h4l234 872h180l-313 -1044h-205z" />
    <glyph glyph-name="w" unicode="w" horiz-adv-x="1402" 
d="M1384 1044l-272 -1044h-197l-219 883h-4l-200 -883h-197l-277 1044h181l198 -872h4l199 872h205l207 -872h4l196 872h172z" />
    <glyph glyph-name="x" unicode="x" horiz-adv-x="872" 
d="M18 0l310 561l-279 483h189l200 -376l201 376h188l-290 -489l317 -555h-197l-231 432l-219 -432h-189z" />
    <glyph glyph-name="y" unicode="y" horiz-adv-x="833" 
d="M178 -307q45 -1 72 27t47 104l41 160l-330 1060h180l234 -851h4l217 851h172l-362 -1257q-39 -131 -97 -186t-145 -55q-86 0 -131 12l8 155q45 -20 90 -20z" />
    <glyph glyph-name="z" unicode="z" horiz-adv-x="796" 
d="M80 1044h643v-155l-483 -742h493v-147h-670v156l484 741h-467v147z" />
    <glyph glyph-name="braceleft" unicode="{" horiz-adv-x="569" 
d="M551 1548v-94h-78q-59 0 -82 -33t-22 -116v-383q-1 -133 -57 -205t-117 -84v-4q61 -12 117 -84t57 -205v-383q1 -84 23 -117t81 -33h78v-94h-121q-90 0 -149 67t-60 181v346q0 276 -158 277v94q158 0 158 276v346q-1 115 59 182t150 66h121z" />
    <glyph glyph-name="bar" unicode="|" horiz-adv-x="454" 
d="M150 -512v2048h155v-2048h-155z" />
    <glyph glyph-name="braceright" unicode="}" horiz-adv-x="569" 
d="M18 -287v94h78q59 0 82 33t23 117v383q0 133 56 205t118 84v4q-61 12 -118 84q-56 72 -56 205v383q0 85 -23 117t-82 32h-78v94h121q90 0 150 -66q59 -67 59 -182v-346q0 -276 158 -276v-94q-158 0 -158 -277v-346q0 -115 -59 -181t-150 -67h-121z" />
    <glyph glyph-name="asciitilde" unicode="~" horiz-adv-x="1228" 
d="M831 373q-75 0 -233 76t-217 75q-76 0 -166 -151l-74 104q106 186 256 187q86 0 239 -76t198 -76q84 0 180 152l73 -105q-104 -186 -256 -186z" />
    <glyph glyph-name="uni00A0" unicode="&#xa0;" horiz-adv-x="491" 
 />
    <glyph glyph-name="exclamdown" unicode="&#xa1;" horiz-adv-x="720" 
d="M262 815v229h197v-229h-197zM463 -385h-205l29 1049h147z" />
    <glyph glyph-name="cent" unicode="&#xa2;" 
d="M600 133q104 0 211 55l8 -157q-102 -45 -219 -45q-41 0 -61 4l-39 -252h-90l41 270q-154 43 -234 178t-80 326q0 254 125 400t342 147h6l35 235h90l-37 -243q64 -10 113 -33l-8 -156q-59 35 -127 43l-115 -768q14 -4 39 -4zM317 512q0 -264 158 -348l113 747
q-125 -6 -198 -104t-73 -295z" />
    <glyph glyph-name="sterling" unicode="&#xa3;" 
d="M106 0v147h144v541h-144v131h144v174q0 229 118 340t300 111q119 0 239 -47l-18 -156q-98 63 -212 63q-115 0 -185 -73q-70 -74 -70 -223v-189h328v-131h-328v-541h473v-147h-789z" />
    <glyph glyph-name="currency" unicode="&#xa4;" 
d="M492 240q-166 0 -291 102l-109 -106l-82 81l107 107q-101 123 -101 288t101 294l-107 106l82 82l109 -107q125 103 292 103t291 -103l107 107l82 -82l-107 -106q100 -127 100 -292t-102 -290l109 -107l-82 -81l-107 106q-126 -102 -292 -102zM156 715q0 -152 94 -248
t242 -96t241 96q94 96 94 248t-94 248t-241 96q-148 0 -242 -96t-94 -248z" />
    <glyph glyph-name="yen" unicode="&#xa5;" 
d="M408 0v291h-312v131h312v147h-312v131h264l-348 730h189l291 -627l290 627h189l-344 -730h260v-131h-307v-147h307v-131h-307v-291h-172z" />
    <glyph glyph-name="brokenbar" unicode="&#xa6;" horiz-adv-x="454" 
d="M150 666v716h155v-716h-155zM150 -358v716h155v-716h-155z" />
    <glyph glyph-name="section" unicode="&#xa7;" 
d="M305 635q0 -70 55 -126t222 -142q92 90 92 200q0 70 -56 129t-204 138q-109 -88 -109 -199zM424 -123q100 0 159 48q58 48 58 135t-98 147l-240 143q-170 102 -170 254q0 78 39 148t145 147q-137 72 -137 236q0 129 92 219t256 90q60 0 144 -20t116 -40l-20 -157
q-121 69 -216 69q-96 0 -148 -43t-52 -119t103 -143l184 -117q121 -78 168 -136t47 -146t-57 -164t-119 -123q63 -41 99 -95t36 -149q0 -151 -106 -241t-267 -90t-311 77l21 160q121 -90 274 -90z" />
    <glyph glyph-name="dieresis" unicode="&#xa8;" horiz-adv-x="417" 
d="M291 1260v204h164v-204h-164zM-37 1260v204h164v-204h-164z" />
    <glyph glyph-name="copyright" unicode="&#xa9;" horiz-adv-x="1638" 
d="M229 715q0 -256 169 -427t421 -171t421 171t169 427t-169 427t-421 171t-421 -171t-169 -427zM90 715q0 303 213 516t516 213t516 -213t213 -516t-213 -516t-516 -213t-516 213t-213 516zM846 260q-195 0 -316 130q-120 130 -120 328t116 326t314 127q143 1 243 -79
t121 -226h-123q-16 88 -81 142t-158 55q-139 0 -216 -95q-77 -96 -77 -246t81 -252t216 -101q94 0 156 56t79 150h123q-29 -145 -126 -230t-232 -85z" />
    <glyph glyph-name="ordfeminine" unicode="&#xaa;" horiz-adv-x="606" 
d="M440 1038v74q-18 4 -78 4q-195 0 -194 -119q0 -106 115 -106q69 0 113 45t44 102zM307 1444q248 0 248 -213v-326q0 -33 6 -94h-110l-7 88h-4q-45 -96 -188 -96q-94 0 -151 46q-56 46 -56 132q0 217 320 217h75v41q0 111 -131 111t-190 -64l-13 107q86 51 201 51z" />
    <glyph glyph-name="guillemotleft" unicode="&#xab;" horiz-adv-x="1024" 
d="M393 111l-229 421l229 422h148l-205 -422l205 -421h-148zM713 111l-230 421l230 422h147l-205 -422l205 -421h-147z" />
    <glyph glyph-name="logicalnot" unicode="&#xac;" horiz-adv-x="1228" 
d="M96 655v140h1037v-562h-140v422h-897z" />
    <glyph glyph-name="uni00AD" unicode="&#xad;" horiz-adv-x="606" 
d="M82 502v147h442v-147h-442z" />
    <glyph glyph-name="registered" unicode="&#xae;" horiz-adv-x="1638" 
d="M229 715q0 -256 169 -427t421 -171t421 171t169 427t-169 427t-421 171t-421 -171t-169 -427zM90 715q0 303 213 516t516 213t516 -213t213 -516t-213 -516t-516 -213t-516 213t-213 516zM680 1034v-258h166q88 0 132 28t44 105q0 125 -176 125h-166zM541 289v854h327
q293 0 293 -240q0 -104 -61 -170t-160 -65l244 -379h-148l-235 379h-121v-379h-139z" />
    <glyph glyph-name="macron" unicode="&#xaf;" horiz-adv-x="417" 
d="M-61 1278v123h540v-123h-540z" />
    <glyph glyph-name="degree" unicode="&#xb0;" horiz-adv-x="819" 
d="M201 1120q0 -86 61 -147q62 -61 148 -61t147 60q61 62 61 148t-61 148t-147 61q-86 0 -148 -61q-61 -62 -61 -148zM86 1120q0 132 95 228t229 96t228 -95q95 -95 95 -229t-95 -228q-95 -95 -228 -95t-229 95q-95 95 -95 228z" />
    <glyph glyph-name="plusminus" unicode="&#xb1;" horiz-adv-x="1228" 
d="M96 0v139h1037v-139h-1037zM96 553v139h449v344h139v-344h449v-139h-449v-346h-139v346h-449z" />
    <glyph glyph-name="twosuperior" unicode="&#xb2;" horiz-adv-x="589" 
d="M41 578v94q352 373 352 528q0 57 -36 97q-37 40 -113 40t-166 -65l-15 117q113 55 225 55t178 -62t66 -162q0 -99 -97 -250t-249 -286h363v-106h-508z" />
    <glyph glyph-name="threesuperior" unicode="&#xb3;" horiz-adv-x="589" 
d="M227 668q78 0 134 47q57 47 57 113t-49 105q-49 38 -131 38h-86v98h47q102 0 157 39t56 100q0 62 -45 100t-122 38t-163 -50l-12 113q88 35 208 35t192 -55t73 -149q0 -94 -47 -144q-47 -51 -125 -66v-4q84 -8 131 -68t47 -154q0 -95 -78 -165t-211 -70t-219 31l10 117
q98 -49 176 -49z" />
    <glyph glyph-name="acute" unicode="&#xb4;" horiz-adv-x="417" 
d="M106 1188l138 297h202l-208 -297h-132z" />
    <glyph glyph-name="mu" unicode="&#xb5;" horiz-adv-x="987" 
d="M442 -14q-100 0 -141 63h-4v-491h-172v1486h172v-673q0 -238 172 -238q104 0 163 72q58 72 58 211v628h172v-819l8 -225h-165l-7 156h-4q-80 -170 -252 -170z" />
    <glyph glyph-name="paragraph" unicode="&#xb6;" horiz-adv-x="1136" 
d="M498 -256v911q-184 0 -305 110t-121 288t123 277t344 100h440v-1686h-131v1571h-219v-1571h-131z" />
    <glyph glyph-name="periodcentered" unicode="&#xb7;" horiz-adv-x="491" 
d="M115 610q0 53 39 92t92 39t92 -39t39 -92t-39 -92t-92 -39t-92 39t-39 92z" />
    <glyph glyph-name="cedilla" unicode="&#xb8;" horiz-adv-x="417" 
d="M289 -117q76 0 125 -40q49 -41 49 -113t-65 -122t-166 -50t-193 36l29 72q145 -52 214 -1q34 26 33 61q0 76 -90 75q-53 0 -88 -14l-31 39l117 174h90l-84 -123q27 6 60 6z" />
    <glyph glyph-name="onesuperior" unicode="&#xb9;" horiz-adv-x="589" 
d="M258 578v720l-119 -122l-59 92l190 168h127v-858h-139z" />
    <glyph glyph-name="ordmasculine" unicode="&#xba;" horiz-adv-x="643" 
d="M322 1444q138 0 210 -85t72 -236t-72 -235t-210 -85q-138 1 -211 85q-72 84 -72 235t72 236t211 85zM178 1123q0 -226 144 -226t143 226q0 226 -143 227q-144 -1 -144 -227z" />
    <glyph glyph-name="guillemotright" unicode="&#xbb;" horiz-adv-x="1024" 
d="M483 111l205 421l-205 422h148l229 -422l-229 -421h-148zM164 111l205 421l-205 422h147l230 -422l-230 -421h-147z" />
    <glyph glyph-name="onequarter" unicode="&#xbc;" horiz-adv-x="1476" 
d="M258 578v720l-119 -122l-59 92l190 168h127v-858h-139zM352 -68l641 1565h131l-641 -1565h-131zM1233 283v452h-4l-250 -452h254zM1233 0v184h-365v113l334 561h162v-575h100v-99h-100v-184h-131z" />
    <glyph glyph-name="onehalf" unicode="&#xbd;" horiz-adv-x="1476" 
d="M928 0v94q352 373 352 529q0 57 -36 97t-112 40t-167 -66l-15 117q112 55 224 55t179 -62t67 -162t-98 -250q-97 -151 -249 -286h363v-106h-508zM258 578v720l-119 -122l-59 92l190 168h127v-858h-139zM352 -68l641 1565h131l-641 -1565h-131z" />
    <glyph glyph-name="threequarters" unicode="&#xbe;" horiz-adv-x="1476" 
d="M227 668q78 0 134 47q57 47 57 113t-49 105q-49 38 -131 38h-86v98h47q102 0 157 39t56 100q0 62 -45 100t-122 38t-163 -50l-12 113q88 35 208 35t192 -55t73 -149q0 -94 -47 -144q-47 -51 -125 -66v-4q84 -8 131 -68t47 -154q0 -95 -78 -165t-211 -70t-219 31l10 117
q98 -49 176 -49zM352 -68l641 1565h131l-641 -1565h-131zM1233 283v452h-4l-250 -452h254zM1233 0v184h-365v113l334 561h162v-575h100v-99h-100v-184h-131z" />
    <glyph glyph-name="questiondown" unicode="&#xbf;" horiz-adv-x="909" 
d="M586 1044v-229h-197v229h197zM410 674h155q1 -143 -23 -214q-24 -72 -104 -172t-108 -163t-27 -151q-1 -88 61 -153t156 -65t234 70l8 -168q-130 -57 -284 -57t-255 92q-100 92 -100 253t104 318l119 174q40 56 52 98t12 138z" />
    <glyph glyph-name="Agrave" unicode="&#xc0;" horiz-adv-x="1175" 
d="M559 1499l-209 297h203l137 -297h-131zM360 528h449l-219 713h-4zM496 1430h196l467 -1430h-188l-115 373h-545l-114 -373h-181z" />
    <glyph glyph-name="Aacute" unicode="&#xc1;" horiz-adv-x="1175" 
d="M485 1499l138 297h202l-209 -297h-131zM360 528h449l-219 713h-4zM496 1430h196l467 -1430h-188l-115 373h-545l-114 -373h-181z" />
    <glyph glyph-name="Acircumflex" unicode="&#xc2;" horiz-adv-x="1175" 
d="M305 1499l205 297h156l204 -297h-155l-127 187l-127 -187h-156zM360 528h449l-219 713h-4zM496 1430h196l467 -1430h-188l-115 373h-545l-114 -373h-181z" />
    <glyph glyph-name="Atilde" unicode="&#xc3;" horiz-adv-x="1175" 
d="M713 1546q-53 0 -133 39t-105 39q-72 0 -80 -88h-106q23 219 194 219q53 0 131 -39t97 -39q51 0 69 88h107q-37 -219 -174 -219zM360 528h449l-219 713h-4zM496 1430h196l467 -1430h-188l-115 373h-545l-114 -373h-181z" />
    <glyph glyph-name="Adieresis" unicode="&#xc4;" horiz-adv-x="1175" 
d="M670 1571v205h164v-205h-164zM342 1571v205h164v-205h-164zM360 528h449l-219 713h-4zM496 1430h196l467 -1430h-188l-115 373h-545l-114 -373h-181z" />
    <glyph glyph-name="Aring" unicode="&#xc5;" horiz-adv-x="1175" 
d="M469 1690q0 -49 35 -84t84 -35t84 35t35 84t-35 84q-35 34 -84 34t-84 -34t-35 -84zM375 1690q0 88 62 150q63 62 151 62t150 -62t62 -150t-62 -150t-150 -63q-88 0 -151 62q-62 63 -62 151zM360 528h449l-219 713h-4zM496 1430h196l467 -1430h-188l-115 373h-545
l-114 -373h-181z" />
    <glyph glyph-name="AE" unicode="&#xc6;" horiz-adv-x="1593" 
d="M844 528v770h-4l-373 -770h377zM1477 1430v-156h-453v-455h428v-155h-428v-508h471v-156h-651v373h-445l-182 -373h-201l713 1430h748z" />
    <glyph glyph-name="Ccedilla" unicode="&#xc7;" horiz-adv-x="1099" 
d="M741 -14q-37 0 -53 2l-76 -111q27 6 60 6q76 0 125 -40q49 -41 49 -113t-65 -122t-166 -50t-193 36l29 72q145 -52 214 -1q34 26 33 61q0 76 -90 75q-53 0 -88 -14l-31 39l115 172q-252 47 -379 245t-127 474q0 331 175 529t458 198q168 0 270 -51v-176q-113 72 -268 71
q-186 0 -316 -142t-130 -410q-1 -268 115 -431q116 -164 343 -164q139 0 256 68v-180q-139 -43 -260 -43z" />
    <glyph glyph-name="Egrave" unicode="&#xc8;" horiz-adv-x="948" 
d="M446 1499l-208 297h202l138 -297h-132zM158 0v1430h665v-156h-485v-455h463v-155h-463v-508h512v-156h-692z" />
    <glyph glyph-name="Eacute" unicode="&#xc9;" horiz-adv-x="948" 
d="M373 1499l137 297h203l-209 -297h-131zM158 0v1430h665v-156h-485v-455h463v-155h-463v-508h512v-156h-692z" />
    <glyph glyph-name="Ecircumflex" unicode="&#xca;" horiz-adv-x="948" 
d="M193 1499l204 297h156l205 -297h-156l-127 187l-127 -187h-155zM158 0v1430h665v-156h-485v-455h463v-155h-463v-508h512v-156h-692z" />
    <glyph glyph-name="Edieresis" unicode="&#xcb;" horiz-adv-x="948" 
d="M557 1571v205h164v-205h-164zM229 1571v205h164v-205h-164zM158 0v1430h665v-156h-485v-455h463v-155h-463v-508h512v-156h-692z" />
    <glyph glyph-name="Igrave" unicode="&#xcc;" horiz-adv-x="495" 
d="M219 1499l-209 297h203l137 -297h-131zM158 0v1430h180v-1430h-180z" />
    <glyph glyph-name="Iacute" unicode="&#xcd;" horiz-adv-x="495" 
d="M145 1499l138 297h202l-209 -297h-131zM158 0v1430h180v-1430h-180z" />
    <glyph glyph-name="Icircumflex" unicode="&#xce;" horiz-adv-x="495" 
d="M-35 1499l205 297h156l204 -297h-155l-127 187l-127 -187h-156zM158 0v1430h180v-1430h-180z" />
    <glyph glyph-name="Idieresis" unicode="&#xcf;" horiz-adv-x="495" 
d="M330 1571v205h164v-205h-164zM2 1571v205h164v-205h-164zM158 0v1430h180v-1430h-180z" />
    <glyph glyph-name="Eth" unicode="&#xd0;" horiz-adv-x="1175" 
d="M317 1274v-451h330v-131h-330v-536h109q233 0 356 152t123 412q0 552 -479 554h-109zM1094 768q0 -768 -734 -768h-223v692h-157v131h157v607h312q236 0 380 -103q113 -78 189 -223t76 -336z" />
    <glyph glyph-name="Ntilde" unicode="&#xd1;" horiz-adv-x="1253" 
d="M752 1546q-54 0 -134 39t-104 39q-72 0 -80 -88h-106q23 219 194 219q53 0 131 -39t97 -39q51 0 69 88h107q-37 -219 -174 -219zM158 0v1430h223l539 -1180h4v1180h172v-1430h-224l-538 1171h-4v-1171h-172z" />
    <glyph glyph-name="Ograve" unicode="&#xd2;" horiz-adv-x="1253" 
d="M598 1499l-209 297h203l137 -297h-131zM618 133q156 0 252 143t96 465t-139 471q-78 84 -192 84q-156 0 -252 -144t-96 -464q0 -321 139 -471q78 -84 192 -84zM626 -14q-248 0 -388 192t-140 540t140 536q140 190 389 190q248 0 388 -193t140 -540t-140 -536
q-141 -189 -389 -189z" />
    <glyph glyph-name="Oacute" unicode="&#xd3;" horiz-adv-x="1253" 
d="M524 1499l138 297h202l-209 -297h-131zM618 133q156 0 252 143t96 465t-139 471q-78 84 -192 84q-156 0 -252 -144t-96 -464q0 -321 139 -471q78 -84 192 -84zM626 -14q-248 0 -388 192t-140 540t140 536q140 190 389 190q248 0 388 -193t140 -540t-140 -536
q-141 -189 -389 -189z" />
    <glyph glyph-name="Ocircumflex" unicode="&#xd4;" horiz-adv-x="1253" 
d="M344 1499l205 297h156l204 -297h-155l-127 187l-127 -187h-156zM618 133q156 0 252 143t96 465t-139 471q-78 84 -192 84q-156 0 -252 -144t-96 -464q0 -321 139 -471q78 -84 192 -84zM626 -14q-248 0 -388 192t-140 540t140 536q140 190 389 190q248 0 388 -193
t140 -540t-140 -536q-141 -189 -389 -189z" />
    <glyph glyph-name="Otilde" unicode="&#xd5;" horiz-adv-x="1253" 
d="M752 1546q-54 0 -134 39t-104 39q-72 0 -80 -88h-106q23 219 194 219q53 0 131 -39t97 -39q51 0 69 88h107q-37 -219 -174 -219zM618 133q156 0 252 143t96 465t-139 471q-78 84 -192 84q-156 0 -252 -144t-96 -464q0 -321 139 -471q78 -84 192 -84zM626 -14
q-248 0 -388 192t-140 540t140 536q140 190 389 190q248 0 388 -193t140 -540t-140 -536q-141 -189 -389 -189z" />
    <glyph glyph-name="Odieresis" unicode="&#xd6;" horiz-adv-x="1253" 
d="M709 1571v205h163v-205h-163zM381 1571v205h164v-205h-164zM618 133q156 0 252 143t96 465t-139 471q-78 84 -192 84q-156 0 -252 -144t-96 -464q0 -321 139 -471q78 -84 192 -84zM626 -14q-248 0 -388 192t-140 540t140 536q140 190 389 190q248 0 388 -193t140 -540
t-140 -536q-141 -189 -389 -189z" />
    <glyph glyph-name="multiply" unicode="&#xd7;" horiz-adv-x="1228" 
d="M244 47l-101 103l369 368l-369 369l101 102l370 -368l371 368l100 -102l-368 -369l368 -368l-100 -103l-371 369z" />
    <glyph glyph-name="Oslash" unicode="&#xd8;" horiz-adv-x="1253" 
d="M1155 729q0 -365 -140 -554t-384 -189t-383 180l-154 -195l-67 54l172 217q-100 182 -101 458q0 365 140 554q140 190 384 190q242 0 384 -180l153 194l68 -53l-172 -217q100 -182 100 -459zM610 133q164 0 260 143t97 453q0 168 -39 297l-566 -715q84 -178 248 -178z
M643 1296q-164 0 -260 -143t-96 -453q0 -168 39 -297l565 715q-84 178 -248 178z" />
    <glyph glyph-name="Ugrave" unicode="&#xd9;" horiz-adv-x="1212" 
d="M578 1499l-209 297h202l138 -297h-131zM1055 1430v-904q1 -203 -53 -310q-115 -230 -396 -230q-282 0 -395 230q-53 108 -53 310v904h180v-930q0 -170 71 -268t197 -99q126 0 198 98q71 98 70 269v930h181z" />
    <glyph glyph-name="Uacute" unicode="&#xda;" horiz-adv-x="1212" 
d="M504 1499l137 297h203l-209 -297h-131zM1055 1430v-904q1 -203 -53 -310q-115 -230 -396 -230q-282 0 -395 230q-53 108 -53 310v904h180v-930q0 -170 71 -268t197 -99q126 0 198 98q71 98 70 269v930h181z" />
    <glyph glyph-name="Ucircumflex" unicode="&#xdb;" horiz-adv-x="1212" 
d="M324 1499l204 297h156l205 -297h-156l-127 187l-127 -187h-155zM1055 1430v-904q1 -203 -53 -310q-115 -230 -396 -230q-282 0 -395 230q-53 108 -53 310v904h180v-930q0 -170 71 -268t197 -99q126 0 198 98q71 98 70 269v930h181z" />
    <glyph glyph-name="Udieresis" unicode="&#xdc;" horiz-adv-x="1212" 
d="M688 1571v205h164v-205h-164zM360 1571v205h164v-205h-164zM1055 1430v-904q1 -203 -53 -310q-115 -230 -396 -230q-282 0 -395 230q-53 108 -53 310v904h180v-930q0 -170 71 -268t197 -99q126 0 198 98q71 98 70 269v930h181z" />
    <glyph glyph-name="Yacute" unicode="&#xdd;" horiz-adv-x="1060" 
d="M428 1499l137 297h203l-209 -297h-131zM440 0v600l-428 830h205l315 -633l318 633h199l-428 -830v-600h-181z" />
    <glyph glyph-name="Thorn" unicode="&#xde;" horiz-adv-x="985" 
d="M338 1036v-536h98q299 0 299 262q0 274 -295 274h-102zM158 0v1430h180v-246h164q194 0 308 -110t114 -308t-119 -306t-346 -108h-121v-352h-180z" />
    <glyph glyph-name="germandbls" unicode="&#xdf;" horiz-adv-x="985" 
d="M117 0v1116q0 207 91 326q90 119 278 119t279 -110t91 -290q0 -131 -50 -206t-188 -132v-4q152 -18 223 -103q71 -86 71 -284t-93 -322q-92 -124 -278 -124q-72 0 -138 14l9 150q66 -25 146 -25t131 59q50 60 50 190t-15 198q-27 121 -151 148q-49 11 -143 15v148
q143 0 199 63q55 63 55 242q0 233 -190 233q-133 0 -169 -95t-36 -224v-1102h-172z" />
    <glyph glyph-name="agrave" unicode="&#xe0;" horiz-adv-x="948" 
d="M446 1188l-208 297h202l138 -297h-132zM246 304q0 -188 188 -187q98 1 164 77q68 76 68 187v131q-31 4 -121 4q-145 0 -222 -60t-77 -152zM470 1059q171 0 265 -94t94 -260v-545q0 -86 9 -160h-156l-10 141h-4q-92 -156 -293 -155q-135 0 -218 78t-83 231q0 154 117 249
q118 95 374 95h101v47q0 114 -44 174t-169 60q-171 0 -269 -109l-18 162q133 86 304 86z" />
    <glyph glyph-name="aacute" unicode="&#xe1;" horiz-adv-x="948" 
d="M373 1188l137 297h203l-209 -297h-131zM246 304q0 -188 188 -187q98 1 164 77q68 76 68 187v131q-31 4 -121 4q-145 0 -222 -60t-77 -152zM470 1059q171 0 265 -94t94 -260v-545q0 -86 9 -160h-156l-10 141h-4q-92 -156 -293 -155q-135 0 -218 78t-83 231q0 154 117 249
q118 95 374 95h101v47q0 114 -44 174t-169 60q-171 0 -269 -109l-18 162q133 86 304 86z" />
    <glyph glyph-name="acircumflex" unicode="&#xe2;" horiz-adv-x="948" 
d="M193 1188l204 297h156l205 -297h-156l-127 186l-127 -186h-155zM246 304q0 -188 188 -187q98 1 164 77q68 76 68 187v131q-31 4 -121 4q-145 0 -222 -60t-77 -152zM470 1059q171 0 265 -94t94 -260v-545q0 -86 9 -160h-156l-10 141h-4q-92 -156 -293 -155q-135 0 -218 78
t-83 231q0 154 117 249q118 95 374 95h101v47q0 114 -44 174t-169 60q-171 0 -269 -109l-18 162q133 86 304 86z" />
    <glyph glyph-name="atilde" unicode="&#xe3;" horiz-adv-x="948" 
d="M600 1235q-53 0 -133 39t-105 39q-72 0 -79 -88h-107q23 219 195 219q53 0 131 -39t96 -39q52 0 70 88h106q-37 -219 -174 -219zM246 304q0 -188 188 -187q98 1 164 77q68 76 68 187v131q-31 4 -121 4q-145 0 -222 -60t-77 -152zM470 1059q171 0 265 -94t94 -260v-545
q0 -86 9 -160h-156l-10 141h-4q-92 -156 -293 -155q-135 0 -218 78t-83 231q0 154 117 249q118 95 374 95h101v47q0 114 -44 174t-169 60q-171 0 -269 -109l-18 162q133 86 304 86z" />
    <glyph glyph-name="adieresis" unicode="&#xe4;" horiz-adv-x="948" 
d="M557 1260v204h164v-204h-164zM229 1260v204h164v-204h-164zM246 304q0 -188 188 -187q98 1 164 77q68 76 68 187v131q-31 4 -121 4q-145 0 -222 -60t-77 -152zM470 1059q171 0 265 -94t94 -260v-545q0 -86 9 -160h-156l-10 141h-4q-92 -156 -293 -155q-135 0 -218 78
t-83 231q0 154 117 249q118 95 374 95h101v47q0 114 -44 174t-169 60q-171 0 -269 -109l-18 162q133 86 304 86z" />
    <glyph glyph-name="aring" unicode="&#xe5;" horiz-adv-x="948" 
d="M381 1368q0 -49 35 -84t84 -35t84 35t34 84q0 49 -34 84q-35 35 -84 35t-84 -35t-35 -84zM287 1368q0 88 62 150q63 62 151 63q88 0 150 -62q62 -63 62 -151t-62 -150t-150 -62t-150 62t-63 150zM246 304q0 -188 188 -187q98 1 164 77q68 76 68 187v131q-31 4 -121 4
q-145 0 -222 -60t-77 -152zM470 1059q171 0 265 -94t94 -260v-545q0 -86 9 -160h-156l-10 141h-4q-92 -156 -293 -155q-135 0 -218 78t-83 231q0 154 117 249q118 95 374 95h101v47q0 114 -44 174t-169 60q-171 0 -269 -109l-18 162q133 86 304 86z" />
    <glyph glyph-name="ae" unicode="&#xe6;" horiz-adv-x="1478" 
d="M668 449v67h-66q-356 0 -356 -229q0 -78 45 -124t145 -46t166 88t66 244zM461 1059q219 0 297 -176q90 176 278 176t282 -131q95 -131 95 -365v-47h-590q0 -211 70 -305t203 -94t252 86l8 -156q-129 -61 -293 -61q-264 0 -340 213q-109 -213 -348 -213q-135 0 -218 78
t-83 223q0 360 491 360h103v33q0 117 -60 178t-162 62q-164 0 -262 -109l-18 162q133 86 295 86zM1241 647q0 131 -52 206q-51 75 -147 75t-156 -70t-63 -211h418z" />
    <glyph glyph-name="ccedilla" unicode="&#xe7;" horiz-adv-x="796" 
d="M553 -274q0 76 -90 75q-53 0 -88 -14l-31 39l113 168q-186 25 -285 167q-98 141 -98 373t123 378t335 147q129 0 216 -41l-9 -156q-87 49 -209 49t-199 -98q-77 -99 -77 -289t77 -290t193 -101q116 0 224 55l8 -157q-102 -45 -215 -45l-74 -109q27 6 59 6q76 0 125 -40
q49 -41 49 -113t-64 -122t-166 -50t-194 36l29 72q145 -52 214 -1q34 26 34 61z" />
    <glyph glyph-name="egrave" unicode="&#xe8;" horiz-adv-x="909" 
d="M426 1188l-209 297h203l137 -297h-131zM672 602q0 326 -205 326q-91 0 -151 -78t-62 -248h418zM844 471h-590q0 -354 285 -354q121 0 239 86l8 -156q-129 -61 -292 -61q-203 0 -312 143t-108 393q0 250 105 393t289 143t280 -130q96 -131 96 -365v-92z" />
    <glyph glyph-name="eacute" unicode="&#xe9;" horiz-adv-x="909" 
d="M352 1188l137 297h203l-209 -297h-131zM672 602q0 326 -205 326q-91 0 -151 -78t-62 -248h418zM844 471h-590q0 -354 285 -354q121 0 239 86l8 -156q-129 -61 -292 -61q-203 0 -312 143t-108 393q0 250 105 393t289 143t280 -130q96 -131 96 -365v-92z" />
    <glyph glyph-name="ecircumflex" unicode="&#xea;" horiz-adv-x="909" 
d="M172 1188l205 297h155l205 -297h-155l-127 186l-127 -186h-156zM672 602q0 326 -205 326q-91 0 -151 -78t-62 -248h418zM844 471h-590q0 -354 285 -354q121 0 239 86l8 -156q-129 -61 -292 -61q-203 0 -312 143t-108 393q0 250 105 393t289 143t280 -130q96 -131 96 -365
v-92z" />
    <glyph glyph-name="edieresis" unicode="&#xeb;" horiz-adv-x="909" 
d="M537 1260v204h163v-204h-163zM209 1260v204h164v-204h-164zM672 602q0 326 -205 326q-91 0 -151 -78t-62 -248h418zM844 471h-590q0 -354 285 -354q121 0 239 86l8 -156q-129 -61 -292 -61q-203 0 -312 143t-108 393q0 250 105 393t289 143t280 -130q96 -131 96 -365v-92
z" />
    <glyph glyph-name="igrave" unicode="&#xec;" horiz-adv-x="454" 
d="M199 1188l-209 297h203l137 -297h-131zM141 0v1044h172v-1044h-172z" />
    <glyph glyph-name="iacute" unicode="&#xed;" horiz-adv-x="454" 
d="M125 1188l137 297h203l-209 -297h-131zM141 0v1044h172v-1044h-172z" />
    <glyph glyph-name="icircumflex" unicode="&#xee;" horiz-adv-x="454" 
d="M-55 1188l205 297h155l205 -297h-156l-127 186l-127 -186h-155zM141 0v1044h172v-1044h-172z" />
    <glyph glyph-name="idieresis" unicode="&#xef;" horiz-adv-x="454" 
d="M309 1260v204h164v-204h-164zM-18 1260v204h163v-204h-163zM141 0v1044h172v-1044h-172z" />
    <glyph glyph-name="eth" unicode="&#xf0;" horiz-adv-x="987" 
d="M913 623q0 -324 -102 -481q-102 -156 -311 -156t-318 143t-108 393q0 250 108 393q109 143 312 144q125 0 213 -92l4 4q-82 256 -275 377l-160 -97l-67 56l160 96q-76 49 -176 80l61 78q102 -20 231 -88l146 88l67 -56l-141 -86q356 -254 356 -796zM254 522
q0 -397 240 -397t239 397q0 397 -239 398q-240 -1 -240 -398z" />
    <glyph glyph-name="ntilde" unicode="&#xf1;" horiz-adv-x="987" 
d="M618 1235q-53 0 -133 39t-104 39q-72 0 -80 -88h-106q23 219 194 219q53 0 131 -39t96 -39q52 0 70 88h107q-37 -219 -175 -219zM557 1059q141 0 223 -84t82 -250v-725h-172v674q0 238 -172 237q-104 0 -163 -71q-58 -72 -58 -211v-629h-172v819l-8 225h166l6 -155h4
q80 170 264 170z" />
    <glyph glyph-name="ograve" unicode="&#xf2;" horiz-adv-x="987" 
d="M465 1188l-209 297h203l137 -297h-131zM74 522q0 250 108 393q109 143 312 143q204 0 312 -142q108 -144 108 -394t-110 -393q-108 -143 -310 -143t-312 143q-108 143 -108 393zM254 522q0 -397 240 -397t239 397q0 397 -239 398q-240 -1 -240 -398z" />
    <glyph glyph-name="oacute" unicode="&#xf3;" horiz-adv-x="987" 
d="M391 1188l137 297h203l-209 -297h-131zM74 522q0 250 108 393q109 143 312 143q204 0 312 -142q108 -144 108 -394t-110 -393q-108 -143 -310 -143t-312 143q-108 143 -108 393zM254 522q0 -397 240 -397t239 397q0 397 -239 398q-240 -1 -240 -398z" />
    <glyph glyph-name="ocircumflex" unicode="&#xf4;" horiz-adv-x="987" 
d="M211 1188l205 297h155l205 -297h-155l-127 186l-127 -186h-156zM74 522q0 250 108 393q109 143 312 143q204 0 312 -142q108 -144 108 -394t-110 -393q-108 -143 -310 -143t-312 143q-108 143 -108 393zM254 522q0 -397 240 -397t239 397q0 397 -239 398
q-240 -1 -240 -398z" />
    <glyph glyph-name="otilde" unicode="&#xf5;" horiz-adv-x="987" 
d="M618 1235q-53 0 -133 39t-104 39q-72 0 -80 -88h-106q23 219 194 219q53 0 131 -39t96 -39q52 0 70 88h107q-37 -219 -175 -219zM74 522q0 250 108 393q109 143 312 143q204 0 312 -142q108 -144 108 -394t-110 -393q-108 -143 -310 -143t-312 143q-108 143 -108 393z
M254 522q0 -397 240 -397t239 397q0 397 -239 398q-240 -1 -240 -398z" />
    <glyph glyph-name="odieresis" unicode="&#xf6;" horiz-adv-x="987" 
d="M575 1260v204h164v-204h-164zM248 1260v204h164v-204h-164zM74 522q0 250 108 393q109 143 312 143q204 0 312 -142q108 -144 108 -394t-110 -393q-108 -143 -310 -143t-312 143q-108 143 -108 393zM254 522q0 -397 240 -397t239 397q0 397 -239 398q-240 -1 -240 -398z
" />
    <glyph glyph-name="divide" unicode="&#xf7;" horiz-adv-x="1228" 
d="M483 117q0 53 39 92t92 39q52 0 92 -39t40 -92t-40 -92q-38 -39 -92 -39t-92 39q-39 39 -39 92zM483 920q0 53 39 92t92 39q52 0 92 -39t40 -92t-39 -93q-39 -39 -93 -39t-92 40q-39 40 -39 92zM96 449v139h1037v-139h-1037z" />
    <glyph glyph-name="oslash" unicode="&#xf8;" horiz-adv-x="987" 
d="M494 125q240 0 239 397q1 125 -24 211l-398 -504q61 -104 183 -104zM74 534q0 238 108 381q110 143 300 143t296 -112l101 125l61 -47l-115 -141q88 -131 88 -371q-1 -240 -109 -383t-300 -143t-295 114l-100 -127l-62 47l113 144q-86 132 -86 370zM254 522
q0 -125 25 -209l397 504q-61 102 -182 103q-240 0 -240 -398z" />
    <glyph glyph-name="ugrave" unicode="&#xf9;" horiz-adv-x="987" 
d="M465 1188l-209 297h203l137 -297h-131zM430 -14q-141 0 -223 84t-82 249v725h172v-673q0 -238 172 -238q104 0 163 72q58 72 58 211v628h172v-819l8 -225h-165l-7 156h-4q-80 -170 -264 -170z" />
    <glyph glyph-name="uacute" unicode="&#xfa;" horiz-adv-x="987" 
d="M391 1188l137 297h203l-209 -297h-131zM430 -14q-141 0 -223 84t-82 249v725h172v-673q0 -238 172 -238q104 0 163 72q58 72 58 211v628h172v-819l8 -225h-165l-7 156h-4q-80 -170 -264 -170z" />
    <glyph glyph-name="ucircumflex" unicode="&#xfb;" horiz-adv-x="987" 
d="M211 1188l205 297h155l205 -297h-155l-127 186l-127 -186h-156zM430 -14q-141 0 -223 84t-82 249v725h172v-673q0 -238 172 -238q104 0 163 72q58 72 58 211v628h172v-819l8 -225h-165l-7 156h-4q-80 -170 -264 -170z" />
    <glyph glyph-name="udieresis" unicode="&#xfc;" horiz-adv-x="987" 
d="M575 1260v204h164v-204h-164zM248 1260v204h164v-204h-164zM430 -14q-141 0 -223 84t-82 249v725h172v-673q0 -238 172 -238q104 0 163 72q58 72 58 211v628h172v-819l8 -225h-165l-7 156h-4q-80 -170 -264 -170z" />
    <glyph glyph-name="yacute" unicode="&#xfd;" horiz-adv-x="833" 
d="M315 1188l138 297h202l-209 -297h-131zM178 -307q45 -1 72 27t47 104l41 160l-330 1060h180l234 -851h4l217 851h172l-362 -1257q-39 -131 -97 -186t-145 -55q-86 0 -131 12l8 155q45 -20 90 -20z" />
    <glyph glyph-name="thorn" unicode="&#xfe;" horiz-adv-x="985" 
d="M109 -442v1978h172v-637h4q80 160 256 160t273 -137q97 -138 97 -400t-97 -399t-264 -137t-265 157h-4v-585h-172zM281 522q0 -397 229 -397t229 397t-229 398q-229 -1 -229 -398z" />
    <glyph glyph-name="ydieresis" unicode="&#xff;" horiz-adv-x="833" 
d="M500 1260v204h164v-204h-164zM172 1260v204h164v-204h-164zM178 -307q45 -1 72 27t47 104l41 160l-330 1060h180l234 -851h4l217 851h172l-362 -1257q-39 -131 -97 -186t-145 -55q-86 0 -131 12l8 155q45 -20 90 -20z" />
    <glyph glyph-name="dotlessi" unicode="&#x131;" horiz-adv-x="454" 
d="M141 0v1044h172v-1044h-172z" />
    <glyph glyph-name="Lslash" unicode="&#x141;" horiz-adv-x="833" 
d="M158 0v569l-138 -131v176l138 131v685h180v-512l260 247v-176l-260 -248v-585h469v-156h-649z" />
    <glyph glyph-name="lslash" unicode="&#x142;" horiz-adv-x="454" 
d="M141 0v633h-4l-137 -178v147l141 178v756h172v-537h4l138 172v-147l-142 -176v-848h-172z" />
    <glyph glyph-name="OE" unicode="&#x152;" horiz-adv-x="1593" 
d="M287 700q0 -559 372 -559q111 1 185 15v1118q-80 23 -185 22q-172 0 -272 -141t-100 -455zM1477 1430v-156h-453v-455h426v-155h-426v-508h471v-156h-575q-96 0 -156 -4l-168 -10q-223 0 -360 194q-138 194 -138 541q0 348 144 535t424 188l254 -14h557z" />
    <glyph glyph-name="oe" unicode="&#x153;" horiz-adv-x="1593" 
d="M1528 471h-610q4 -354 284 -354q141 0 260 86l8 -156q-129 -61 -292 -61q-248 0 -342 225q-94 -225 -332 -225q-211 0 -321 142t-109 394q0 252 109 394q110 142 321 143q127 0 204 -52t128 -165q51 113 126 165t193 52q181 0 277 -131t96 -365v-92zM1356 602
q0 326 -215 326q-221 0 -223 -326h438zM254 522q0 -397 250 -397t250 397t-250 398q-250 -1 -250 -398z" />
    <glyph glyph-name="Scaron" unicode="&#x160;" horiz-adv-x="909" 
d="M377 1499l-205 297h156l127 -186l127 186h155l-205 -297h-155zM281 1086q0 -82 47 -138q48 -55 202 -144q154 -90 221 -188t66 -225q-1 -178 -109 -292q-108 -113 -294 -113t-312 61v186q154 -92 272 -92t186 67t69 157q0 90 -42 149q-41 58 -205 158t-227 186t-63 242
t114 250t272 94t270 -47v-174q-108 65 -226 65t-180 -60t-61 -142z" />
    <glyph glyph-name="scaron" unicode="&#x161;" horiz-adv-x="757" 
d="M301 1188l-205 297h156l127 -187l127 187h156l-205 -297h-156zM314 125q106 0 158 42t52 105q0 104 -133 164l-115 51q-112 51 -158 111t-46 174q0 115 93 201t231 86t233 -37l-8 -148q-99 46 -193 46t-139 -40t-45 -102t43 -102q43 -41 133 -76l61 -25q207 -84 207 -266
q0 -145 -83 -234t-249 -89t-286 61l10 156q128 -78 234 -78z" />
    <glyph glyph-name="Ydieresis" unicode="&#x178;" horiz-adv-x="1060" 
d="M612 1571v205h164v-205h-164zM285 1571v205h164v-205h-164zM440 0v600l-428 830h205l315 -633l318 633h199l-428 -830v-600h-181z" />
    <glyph glyph-name="Zcaron" unicode="&#x17d;" horiz-adv-x="948" 
d="M397 1499l-204 297h155l127 -186l127 186h156l-205 -297h-156zM70 0v170l581 1104h-563v156h778v-156l-600 -1118h613v-156h-809z" />
    <glyph glyph-name="zcaron" unicode="&#x17e;" horiz-adv-x="796" 
d="M322 1188l-205 297h155l127 -187l127 187h156l-205 -297h-155zM80 1044h643v-155l-483 -742h493v-147h-670v156l484 741h-467v147z" />
    <glyph glyph-name="florin" unicode="&#x192;" 
d="M252 713v131h201l26 151q45 249 115 349t199 100q92 0 145 -35l-23 -137q-49 33 -111 33t-94 -74t-61 -275l-16 -112h182v-131h-203l-84 -557q-49 -332 -129 -471t-229 -140q-47 0 -125 31l21 143q130 -52 180 6q50 57 102 412l84 576h-180z" />
    <glyph glyph-name="circumflex" unicode="&#x2c6;" horiz-adv-x="417" 
d="M-74 1188l205 297h156l205 -297h-156l-127 186l-127 -186h-156z" />
    <glyph glyph-name="caron" unicode="&#x2c7;" horiz-adv-x="417" 
d="M131 1188l-205 297h156l127 -187l127 187h156l-205 -297h-156z" />
    <glyph glyph-name="uni02C9" unicode="&#x2c9;" horiz-adv-x="417" 
d="M-61 1278v123h540v-123h-540z" />
    <glyph glyph-name="breve" unicode="&#x2d8;" horiz-adv-x="417" 
d="M209 1327q129 0 151 141h107q-14 -132 -82 -198q-69 -66 -177 -66t-176 66t-81 198h106q23 -141 152 -141z" />
    <glyph glyph-name="dotaccent" unicode="&#x2d9;" horiz-adv-x="417" 
d="M127 1260v204h164v-204h-164z" />
    <glyph glyph-name="ring" unicode="&#x2da;" horiz-adv-x="417" 
d="M90 1368q0 -49 35 -84t84 -35t84 35t35 84t-35 84t-84 35t-84 -35t-35 -84zM-4 1368q0 88 62 150t150 63q88 0 151 -62q63 -63 63 -151t-62 -150t-151 -62t-151 62t-62 150z" />
    <glyph glyph-name="ogonek" unicode="&#x2db;" horiz-adv-x="417" 
d="M164 -246q0 -115 104 -115q52 0 105 27l28 -72q-188 -81 -319 10q-66 46 -66 125t64 151t174 120h90q-84 -49 -132 -118t-48 -128z" />
    <glyph glyph-name="tilde" unicode="&#x2dc;" horiz-adv-x="417" 
d="M334 1235q-53 0 -133 39t-105 39q-72 0 -80 -88h-106q23 219 194 219q53 0 131 -39t97 -39q51 0 69 88h107q-37 -219 -174 -219z" />
    <glyph glyph-name="hungarumlaut" unicode="&#x2dd;" horiz-adv-x="417" 
d="M270 1188l138 297h202l-209 -297h-131zM-57 1188l137 297h203l-209 -297h-131z" />
    <glyph glyph-name="uni03A9" unicode="&#x3a9;" horiz-adv-x="1257" 
d="M340 135v6q-102 111 -168 271t-66 352q0 291 150 477t380 186t370 -191t141 -460q0 -198 -69 -366t-167 -269v-6h260v-135h-430v100q104 82 175 250t71 386t-94 384t-260 166t-266 -156q-101 -156 -101 -380t74 -398t174 -252v-100h-432v135h258z" />
    <glyph glyph-name="uni03BC" unicode="&#x3bc;" horiz-adv-x="987" 
d="M442 -14q-100 0 -141 63h-4v-491h-172v1486h172v-673q0 -238 172 -238q104 0 163 72q58 72 58 211v628h172v-819l8 -225h-165l-7 156h-4q-80 -170 -252 -170z" />
    <glyph glyph-name="pi" unicode="&#x3c0;" horiz-adv-x="1030" 
d="M846 905v-620q0 -193 24 -285h-151q-31 57 -31 274v631h-301q-8 -211 -45 -486t-84 -419h-154q49 162 85 431t40 474q-131 0 -188 -20l-23 108q78 55 265 56h714l-14 -144h-137z" />
    <glyph glyph-name="endash" unicode="&#x2013;" horiz-adv-x="1024" 
d="M0 506v139h1024v-139h-1024z" />
    <glyph glyph-name="emdash" unicode="&#x2014;" horiz-adv-x="2048" 
d="M0 506v139h2048v-139h-2048z" />
    <glyph glyph-name="quoteleft" unicode="&#x2018;" horiz-adv-x="491" 
d="M100 1061l136 475h155l-102 -475h-189z" />
    <glyph glyph-name="quoteright" unicode="&#x2019;" horiz-adv-x="491" 
d="M100 1061l103 475h188l-135 -475h-156z" />
    <glyph glyph-name="quotesinglbase" unicode="&#x201a;" horiz-adv-x="491" 
d="M100 -260l103 475h188l-135 -475h-156z" />
    <glyph glyph-name="quotedblleft" unicode="&#x201c;" horiz-adv-x="1024" 
d="M213 1061l135 475h156l-103 -475h-188zM520 1061l135 475h156l-102 -475h-189z" />
    <glyph glyph-name="quotedblright" unicode="&#x201d;" horiz-adv-x="1024" 
d="M520 1061l103 475h188l-135 -475h-156zM213 1061l102 475h189l-135 -475h-156z" />
    <glyph glyph-name="quotedblbase" unicode="&#x201e;" horiz-adv-x="1024" 
d="M520 -260l103 475h188l-135 -475h-156zM213 -260l102 475h189l-135 -475h-156z" />
    <glyph glyph-name="dagger" unicode="&#x2020;" 
d="M414 0v920h-283v139h283v371h155v-371h283v-139h-283v-920h-155z" />
    <glyph glyph-name="daggerdbl" unicode="&#x2021;" 
d="M414 0v344h-283v139h283v463h-283v139h283v345h155v-345h283v-139h-283v-463h283v-139h-283v-344h-155z" />
    <glyph glyph-name="bullet" unicode="&#x2022;" horiz-adv-x="1024" 
d="M154 715q0 150 104 254t254 104t254 -104t104 -254t-104 -254q-104 -105 -254 -105t-254 104t-104 255z" />
    <glyph glyph-name="ellipsis" unicode="&#x2026;" horiz-adv-x="2048" 
d="M1608 0v229h196v-229h-196zM926 0v229h196v-229h-196zM244 0v229h196v-229h-196z" />
    <glyph glyph-name="perthousand" unicode="&#x2030;" horiz-adv-x="1822" 
d="M944 637q-57 -1 -85 -61t-28 -208t28 -208t85 -60t85 60t28 208t-28 208t-85 61zM709 369q0 199 57 291t178 92t178 -92q58 -92 58 -292q0 -198 -58 -290t-178 -92q-121 0 -178 92t-57 291zM82 1061q0 199 57 291t178 92t179 -92t57 -291q0 -199 -57 -291
q-56 -92 -178 -92t-179 92t-57 291zM1270 369q0 199 57 291t178 92t178 -92t57 -292q0 -198 -56 -290q-58 -92 -179 -92t-178 92t-57 291zM205 1060q-1 -148 27 -208q28 -59 85 -59t85 59q28 60 28 208t-28 208t-85 61q-57 0 -85 -60q-27 -61 -27 -209zM326 -14l508 1458
h104l-510 -1458h-102zM1393 368q-1 -148 27 -208t85 -60t85 60t28 208t-28 208t-85 61q-57 0 -85 -60q-27 -61 -27 -209z" />
    <glyph glyph-name="guilsinglleft" unicode="&#x2039;" horiz-adv-x="569" 
d="M326 111l-230 421l230 422h147l-205 -422l205 -421h-147z" />
    <glyph glyph-name="guilsinglright" unicode="&#x203a;" horiz-adv-x="569" 
d="M96 111l205 421l-205 422h148l229 -422l-229 -421h-148z" />
    <glyph glyph-name="fraction" unicode="&#x2044;" horiz-adv-x="342" 
d="M-215 -68l641 1565h131l-641 -1565h-131z" />
    <glyph glyph-name="Euro" unicode="&#x20ac;" 
d="M754 1288q-160 0 -257 -108t-132 -275h542l-20 -100h-539q-10 -90 0 -180h510l-18 -101h-475q37 -166 134 -272t255 -107q113 0 209 52l12 -174q-119 -37 -232 -37q-238 0 -382 150t-187 388h-160l21 101h129q-8 109 0 180h-150l21 100h141q42 239 188 389t379 150
q139 0 252 -53l-32 -164q-25 25 -95 43t-114 18z" />
    <glyph glyph-name="afii61289" unicode="&#x2113;" horiz-adv-x="880" 
d="M348 1079v-405q260 317 260 563q0 197 -121 197q-57 0 -98 -86t-41 -269zM504 -6q-154 0 -228 102t-77 271v26q-15 -14 -51 -44t-52 -44l-45 92q104 92 146 138v544q0 248 83 364q84 116 200 116q116 -1 173 -91t58 -235q0 -334 -363 -721v-82q2 -158 53 -232t136 -75
q137 0 233 180l72 -65q-119 -244 -338 -244z" />
    <glyph glyph-name="trademark" unicode="&#x2122;" horiz-adv-x="2048" 
d="M938 578v852h209l250 -656l250 656h208v-852h-131v741h-4l-280 -741h-88l-279 741h-4v-741h-131zM377 578v757h-266v95h663v-95h-266v-757h-131z" />
    <glyph glyph-name="Omega" unicode="&#x2126;" horiz-adv-x="1257" 
d="M340 135v6q-102 111 -168 271t-66 352q0 291 150 477t380 186t370 -191t141 -460q0 -198 -69 -366t-167 -269v-6h260v-135h-430v100q104 82 175 250t71 386t-94 384t-260 166t-266 -156q-101 -156 -101 -380t74 -398t174 -252v-100h-432v135h258z" />
    <glyph glyph-name="estimated" unicode="&#x212e;" horiz-adv-x="1757" 
d="M1391 745v400q0 29 -21 47q-212 207 -494 207t-491 -213q-18 -18 -18 -49v-392q0 -12 10 -12h1005q9 0 9 12zM1688 694h-1311q-10 0 -10 -8v-397q0 -25 16 -45q209 -215 509 -215t509 241h117q-111 -131 -280 -207t-361 -75q-336 0 -573 213t-236 514q0 301 237 515
q238 214 573 214q334 0 572 -214t238 -515v-21z" />
    <glyph glyph-name="partialdiff" unicode="&#x2202;" horiz-adv-x="991" 
d="M440 133h2q115 0 192 151t95 365q-20 74 -86 134q-66 61 -162 61t-171 -116q-74 -116 -74 -267t55 -239t149 -89zM901 828q0 -378 -124 -606q-124 -226 -351 -226q-166 0 -257 134t-91 347t115 357t272 145q102 0 175 -53t103 -113h2q2 20 3 78q0 241 -94 401t-228 160
t-240 -94l-51 125q131 109 313 109t318 -194q135 -192 135 -570z" />
    <glyph glyph-name="Delta" unicode="&#x2206;" horiz-adv-x="1153" 
d="M215 133h717l-240 733q-12 43 -56 178t-56 189h-9q-8 -45 -49 -170t-53 -170zM57 0v106l435 1334h180l426 -1331v-109h-1041z" />
    <glyph glyph-name="product" unicode="&#x220f;" horiz-adv-x="1261" 
d="M1210 1255h-188v-1450h-156v1450h-473v-1450h-155v1450h-189v150h1161v-150z" />
    <glyph glyph-name="summation" unicode="&#x2211;" horiz-adv-x="991" 
d="M952 -195h-907v113l471 688l-453 684v115h861v-139h-648v-6l418 -627l-456 -664v-8h714v-156z" />
    <glyph glyph-name="minus" unicode="&#x2212;" horiz-adv-x="1228" 
d="M96 449v139h1037v-139h-1037z" />
    <glyph glyph-name="uni2215" unicode="&#x2215;" horiz-adv-x="342" 
d="M-215 -68l641 1565h131l-641 -1565h-131z" />
    <glyph glyph-name="uni2219" unicode="&#x2219;" horiz-adv-x="491" 
d="M115 610q0 53 39 92t92 39t92 -39t39 -92t-39 -92t-92 -39t-92 39t-39 92z" />
    <glyph glyph-name="radical" unicode="&#x221a;" horiz-adv-x="1048" 
d="M1044 1677l-399 -1972h-135l-283 924l-135 -51l-29 100l265 102l215 -706q29 -133 32 -160h3l10 70t14 90l328 1603h114z" />
    <glyph glyph-name="infinity" unicode="&#x221e;" horiz-adv-x="1449" 
d="M1069 782h-2q-73 0 -131 -49t-103 -98t-49 -53q100 -115 160 -160t135 -45q76 0 125 61t49 147q0 85 -51 141t-133 56zM389 377h2q42 0 67 12t52 26q43 22 97 85q53 62 65 71q-57 74 -86 107q-29 32 -87 68t-131 36t-123 -60t-49 -146t55 -142q54 -57 138 -57zM1356 586
v-2q0 -135 -86 -220t-203 -85q-84 0 -163 51t-177 168q-92 -106 -170 -162q-77 -56 -187 -57q-110 0 -194 86q-84 85 -84 213t84 214t196 87t194 -57q81 -58 167 -163q72 78 101 109q28 31 100 71t147 40q121 0 198 -81t77 -212z" />
    <glyph glyph-name="integral" unicode="&#x222b;" horiz-adv-x="686" 
d="M545 1599q-47 0 -80 -49q-59 -76 -59 -356q0 -156 12 -496t12 -510q0 -274 -78 -407q-61 -109 -196 -109q-72 0 -121 31l26 121q109 -53 164 26q55 80 56 338l-25 1022q0 313 100 430q72 82 187 82q55 1 100 -24l-22 -117q-29 18 -76 18z" />
    <glyph glyph-name="approxequal" unicode="&#x2248;" horiz-adv-x="1013" 
d="M694 293q-76 0 -209 76q-103 65 -163 65t-99 -37t-78 -104l-67 53q92 186 254 186q92 0 176 -58q85 -58 125 -70q40 -13 79 -13q75 0 156 141l64 -55q-84 -184 -238 -184zM332 856q66 0 126 -31t86 -49q27 -18 41 -25q15 -7 44 -21q29 -15 76 -15q46 1 84 35t79 106
l64 -53q-84 -186 -238 -187q-78 0 -196 70t-176 72q-60 0 -99 -36t-78 -104l-67 52q92 186 254 186z" />
    <glyph glyph-name="notequal" unicode="&#x2260;" horiz-adv-x="1013" 
d="M920 807v-102h-312l-119 -269h431v-102h-469l-95 -213l-80 35l80 178h-264v102h303l119 269h-422v102h459l94 211l80 -33l-78 -178h273z" />
    <glyph glyph-name="lessequal" unicode="&#x2264;" horiz-adv-x="1013" 
d="M922 25h-828v106h828v-106zM915 207l-813 428v108l811 428v-122l-706 -355v-6l708 -356v-125z" />
    <glyph glyph-name="greaterequal" unicode="&#x2265;" horiz-adv-x="1013" 
d="M920 25h-826v106h826v-106zM104 1171l814 -428v-108l-814 -428v125l707 356v4l-707 357v122z" />
    <glyph glyph-name="lozenge" unicode="&#x25ca;" horiz-adv-x="1048" 
d="M805 698l-244 533q-25 74 -33 115h-6q-18 -74 -35 -115l-243 -524l243 -539q14 -39 33 -111h6q14 61 33 107zM950 702l-364 -786h-131l-357 786l365 787h131z" />
    </font>
</defs>
</svg>
